<svg width="704" height="150" viewBox="0 0 704 150" fill="#F3F2F2" xmlns="http://www.w3.org/2000/svg">
<path d="M157.554 96.071C158.03 120.913 105.635 135.771 75.1133 149.291C75.1133 149.291 136.834 135.368 158.763 116.022C172.705 103.711 171.221 71.6869 135.13 76.7066C134.819 76.7066 133.884 77.989 133.573 78.044C133.573 78.044 157.206 79.876 157.572 96.071"/>
<path d="M38.4748 49.666C35.855 48.9698 32.6856 48.0538 29.3147 47.2844L28.3254 42.9242C28.3254 42.9242 96.5314 75.6989 169.794 2.61978C171.241 1.22745 172.34 0 172.34 0C172.34 0 171.534 4.177 171.607 4.01212C168.965 6.1044 166.644 8.57344 164.719 11.3402C158.71 19.5659 152.756 35.4495 162.594 65.348L159.388 67.6014C159.388 67.6014 157.08 47.2294 146.564 53.4216C140.848 56.7925 137.679 76.5417 137.679 76.5417L132.97 78.2638C132.97 78.2638 149 33.2511 122.345 40.5059C98.6382 46.9912 87.3713 66.5938 79.6769 147.88C79.6769 148.54 75.0418 149.291 75.0418 149.291C75.0418 149.291 81.8203 105.03 61.7964 106.019C45.4181 106.825 16.7287 148.155 16.7287 148.155H10.2617C10.2617 148.155 87.756 63.2046 38.4748 49.7393"/>
<path d="M77.8968 45.8006C83.9058 45.8006 90.2629 40.1763 92.0949 33.2329C93.9269 26.2896 90.5377 20.647 84.547 20.647C78.5563 20.647 72.1809 26.2713 70.3488 33.2329C68.5168 40.1946 71.9061 45.8006 77.8968 45.8006Z"/>
<path d="M157.554 96.0893C158.03 120.913 105.635 135.789 75.1133 149.309C75.1133 149.309 136.834 135.386 158.763 116.04C172.705 103.729 171.221 71.7052 135.112 76.7249C134.819 76.7249 133.884 78.0073 133.573 78.044C133.573 78.044 157.206 79.876 157.554 96.0893Z"/>
<path d="M38.3649 49.7026C35.7634 48.9881 32.594 48.0721 29.2048 47.3027L28.2338 42.9608C28.2338 42.9608 96.4398 75.7173 169.702 2.65643C171.241 1.24577 172.34 0 172.34 0C172.34 0 171.534 4.177 171.607 4.01212C168.965 6.1044 166.644 8.57344 164.719 11.3402C158.692 19.5659 152.756 35.4495 162.594 65.348L159.388 67.6014C159.388 67.6014 157.061 47.2294 146.564 53.4216C140.848 56.7925 137.679 76.56 137.679 76.56L132.97 78.2821C132.97 78.2821 149 33.2511 122.345 40.5242C98.6382 47.0096 87.353 66.6122 79.6585 147.899C79.6585 148.558 75.0418 149.309 75.0418 149.309C75.0418 149.309 81.8203 105.048 61.7964 106.037C45.3998 106.843 16.7287 148.174 16.7287 148.174H10.2617C10.2617 148.174 87.756 63.2229 38.3649 49.7759"/>
<path d="M77.8968 45.8006C83.9058 45.8006 90.2445 40.1763 92.0766 33.2146C93.9086 26.2529 90.5377 20.647 84.5287 20.647C78.5196 20.647 72.1809 26.2713 70.3488 33.2146C68.5168 40.158 71.9061 45.8006 77.8968 45.8006Z"/>
<path d="M140.259 22.131C142.557 21.1881 144.483 19.5191 145.744 17.3788C147.004 15.2386 147.529 12.7447 147.239 10.2779C147.135 9.37686 146.854 8.50529 146.412 7.71291C145.971 6.92054 145.377 6.22288 144.666 5.65978C143.955 5.09668 143.14 4.67917 142.268 4.43108C141.395 4.18299 140.482 4.10919 139.581 4.21389C138.872 4.29271 138.179 4.48444 137.53 4.78181C135.228 5.71968 133.298 7.38766 132.037 9.52924C130.776 11.6708 130.253 14.1674 130.55 16.635C130.654 17.536 130.935 18.4075 131.377 19.1999C131.818 19.9923 132.411 20.69 133.123 21.2531C133.834 21.8162 134.649 22.2337 135.521 22.4818C136.394 22.7298 137.306 22.8036 138.207 22.6989C138.917 22.6201 139.61 22.4284 140.259 22.131Z"/>
<path d="M2.34498 142.659H3.95716C4.94645 142.659 5.36781 143.081 5.36781 143.85C5.36347 144.149 5.24544 144.434 5.03778 144.649C4.83013 144.863 4.54848 144.99 4.25028 145.004L5.49605 146.983H5.12965L3.82892 144.986H2.71139V146.983H2.34498V142.659ZM2.71139 144.729H3.66404C4.32356 144.729 5.03805 144.729 5.03805 143.905C5.03805 143.081 4.4518 143.062 3.93884 143.062H2.71139V144.729ZM0.384725 144.729C0.384725 145.599 0.730223 146.433 1.34521 147.048C1.9602 147.663 2.79431 148.009 3.66404 148.009C4.53376 148.009 5.36787 147.663 5.98286 147.048C6.59785 146.433 6.94335 145.599 6.94335 144.729C6.95803 144.306 6.8891 143.884 6.74048 143.487C6.59187 143.09 6.3665 142.726 6.07725 142.417C5.788 142.107 5.44055 141.857 5.05476 141.682C4.66898 141.507 4.25242 141.409 3.82892 141.395H3.66404C3.22731 141.39 2.79405 141.473 2.39026 141.64C1.98647 141.806 1.62046 142.052 1.31421 142.364C1.00795 142.675 0.767755 143.045 0.608034 143.452C0.448313 143.858 0.372358 144.293 0.384725 144.729V144.876V144.729ZM7.32807 144.876C7.32807 145.601 7.11318 146.309 6.71057 146.912C6.30796 147.514 5.73572 147.984 5.0662 148.261C4.39669 148.538 3.65997 148.611 2.94922 148.47C2.23847 148.328 1.5856 147.979 1.07317 147.467C0.560748 146.954 0.211783 146.302 0.070405 145.591C-0.0709725 144.88 0.00158756 144.143 0.27891 143.474C0.556232 142.804 1.02586 142.232 1.62841 141.829C2.23095 141.427 2.93936 141.212 3.66404 141.212C4.6358 141.212 5.56776 141.598 6.2549 142.285C6.94204 142.972 7.32807 143.904 7.32807 144.876Z"/>
<path d="M219.585 83.54C217.725 84.2907 215.727 84.6403 213.723 84.5659C206.505 84.5659 202.126 80.0408 202.126 73.1341C202.045 71.6372 202.259 70.1389 202.758 68.7251C203.256 67.3113 204.029 66.0097 205.031 64.895C206.034 63.7803 207.246 62.8743 208.599 62.229C209.953 61.5837 211.42 61.2117 212.917 61.1344C213.362 61.0978 213.809 61.0978 214.254 61.1344C216.137 61.0722 218.012 61.4159 219.75 62.142L218.834 65.4396C217.435 64.8379 215.924 64.5382 214.401 64.5603C209.766 64.5603 206.431 67.4732 206.431 72.9326C206.431 77.9157 209.363 81.1217 214.364 81.1217C215.907 81.1368 217.438 80.8505 218.871 80.279L219.585 83.54Z"/>
<path d="M234.223 67.7847V70.9907H229.295V84.2728H225.155V71.009H220.227V67.7847H234.223Z"/>
<path d="M245.614 84.2727L245.339 82.4407H245.229C244.637 83.1472 243.893 83.7105 243.052 84.088C242.211 84.4656 241.296 84.6478 240.375 84.6208C239.737 84.6605 239.097 84.5738 238.493 84.3659C237.889 84.1579 237.332 83.8327 236.853 83.4089C236.375 82.9851 235.985 82.471 235.706 81.8962C235.427 81.3213 235.264 80.697 235.227 80.0591V79.7476C235.227 75.589 238.891 73.5005 244.973 73.5371V73.2806C244.973 72.1997 244.533 70.4227 241.62 70.4227C240.067 70.4245 238.543 70.8419 237.205 71.6318L236.326 68.8838C238.139 67.8794 240.189 67.3797 242.262 67.4365C247.519 67.4365 249.04 70.7708 249.04 74.3432V80.2789C249.037 81.6157 249.135 82.9508 249.333 84.2727H245.614ZM245.065 76.2485C242.133 76.2485 239.33 76.8164 239.33 79.3263C239.279 79.8971 239.457 80.4649 239.825 80.9046C240.193 81.3443 240.72 81.6201 241.291 81.6713C241.424 81.6896 241.56 81.6896 241.694 81.6713C242.402 81.6816 243.095 81.4697 243.677 81.0656C244.259 80.6614 244.699 80.0852 244.936 79.4179C245.025 79.1207 245.068 78.8119 245.065 78.5019V76.2485Z"/>
<path d="M253.499 73.2807C253.499 71.119 253.499 69.3785 253.371 67.7847H257.035L257.237 70.3129C257.843 69.3841 258.68 68.6288 259.666 68.1213C260.652 67.6138 261.753 67.3716 262.861 67.4183C266.653 67.4183 269.786 70.6426 269.786 75.7723C269.786 81.708 266.122 84.566 262.293 84.566C261.414 84.6129 260.537 84.4438 259.739 84.0733C258.94 83.7028 258.245 83.1423 257.713 82.4408V82.4408V90.9231H253.573L253.499 73.2807ZM257.64 77.3661C257.633 77.7499 257.682 78.1325 257.786 78.502C257.961 79.3387 258.423 80.0878 259.092 80.6198C259.762 81.1517 260.596 81.433 261.45 81.4149C264.07 81.4149 265.627 79.2165 265.627 75.9188C265.627 73.0242 264.198 70.6609 261.542 70.6609C260.672 70.6815 259.836 70.9976 259.17 71.557C258.504 72.1164 258.048 72.8858 257.878 73.7387C257.762 74.0751 257.701 74.4274 257.695 74.783L257.64 77.3661Z"/>
<path d="M277.295 67.7847V80.9935H282.132V67.7847H286.254V80.9935H291.036V67.7847H295.121V84.2728H273.137V67.7847H277.295Z"/>
<path d="M303.382 67.7847V73.6838C303.382 76.2852 303.382 78.0256 303.144 80.334H303.254C304.134 78.502 304.628 77.1829 305.471 75.4791L309.611 67.7847H314.631V84.2728H310.692V78.4104C310.692 75.7723 310.802 74.5631 310.967 71.467H310.82C310.014 73.4273 309.483 74.5998 308.677 76.1753C307.395 78.6119 305.911 81.6714 304.482 84.2728H299.535V67.7847H303.382Z"/>
<path d="M321.885 77.1829C321.995 80.1324 324.322 81.4149 326.942 81.4149C328.531 81.4541 330.112 81.1802 331.595 80.6088L332.199 83.4667C330.374 84.1805 328.425 84.529 326.465 84.4926C325.45 84.5884 324.425 84.4828 323.45 84.1817C322.476 83.8806 321.57 83.39 320.785 82.7381C320.001 82.0862 319.353 81.2858 318.878 80.3828C318.403 79.4798 318.112 78.492 318.02 77.476C317.983 77.0493 317.983 76.6203 318.02 76.1936C318.02 71.6319 320.786 67.3633 326.044 67.3633C331.302 67.3633 333.134 71.7418 333.134 75.3509C333.149 75.965 333.1 76.5791 332.987 77.1829H321.885ZM329.103 74.27C329.229 73.3449 328.983 72.4078 328.42 71.663C327.858 70.9183 327.023 70.4263 326.099 70.2945H325.714C324.69 70.3592 323.728 70.8086 323.021 71.5527C322.315 72.2967 321.915 73.2805 321.904 74.3066L329.103 74.27Z"/>
<path d="M357.52 61.501V64.9085H347.609V69.8C348.539 69.6843 349.475 69.6231 350.412 69.6168C352.584 69.5643 354.722 70.1641 356.549 71.3389C357.44 71.9435 358.162 72.7657 358.646 73.7276C359.131 74.6895 359.361 75.7591 359.316 76.835C359.34 77.7698 359.168 78.6993 358.811 79.5638C358.455 80.4282 357.922 81.2086 357.246 81.8547C354.758 83.738 351.675 84.6616 348.562 84.4562C346.859 84.4717 345.157 84.3676 343.469 84.1447V61.501H357.52ZM347.609 81.1585C348.338 81.256 349.073 81.2989 349.808 81.2868C351.263 81.3351 352.683 80.8312 353.783 79.8761C354.172 79.4886 354.477 79.025 354.679 78.5144C354.88 78.0037 354.975 77.457 354.956 76.9082C354.975 76.3117 354.848 75.7194 354.586 75.183C354.324 74.6466 353.935 74.1823 353.453 73.8305C352.337 73.075 351.008 72.6962 349.661 72.7496C348.975 72.7619 348.29 72.8108 347.609 72.8961V81.1585Z"/>
<path d="M362.738 73.2807C362.738 71.119 362.738 69.3785 362.609 67.7847H366.273L366.475 70.3129C367.081 69.3841 367.918 68.6288 368.904 68.1213C369.89 67.6138 370.991 67.3716 372.099 67.4183C375.892 67.4183 379.024 70.6426 379.024 75.7723C379.024 81.708 375.269 84.566 371.531 84.566C370.665 84.6009 369.802 84.4259 369.017 84.0559C368.233 83.6859 367.549 83.1318 367.025 82.4408V82.4408V90.9231H362.738V73.2807ZM366.878 77.3661C366.871 77.7499 366.921 78.1325 367.025 78.502C367.2 79.3387 367.662 80.0878 368.331 80.6198C369 81.1517 369.834 81.433 370.689 81.4149C373.327 81.4149 374.884 79.2165 374.884 75.9188C374.884 73.0242 373.455 70.6609 370.798 70.6609C369.929 70.6815 369.092 70.9976 368.426 71.557C367.761 72.1164 367.305 72.8858 367.134 73.7387C367.019 74.0751 366.957 74.4274 366.951 74.783L366.878 77.3661Z"/>
<path d="M391.779 84.2729L391.505 82.4409H391.395C390.803 83.1404 390.06 83.6966 389.222 84.0679C388.385 84.4391 387.474 84.6157 386.558 84.5844C385.92 84.6241 385.281 84.5374 384.677 84.3295C384.072 84.1215 383.515 83.7963 383.037 83.3725C382.559 82.9486 382.169 82.4346 381.89 81.8597C381.61 81.2849 381.448 80.6606 381.41 80.0227V79.7112C381.41 75.5525 385.074 73.464 391.156 73.5007V73.2808C391.156 72.1999 390.717 70.4229 387.804 70.4229C386.251 70.4247 384.726 70.8422 383.389 71.632L382.583 68.939C384.396 67.9346 386.446 67.4348 388.518 67.4917C393.776 67.4917 395.297 70.8259 395.297 74.3984V80.3341C395.275 81.6512 395.355 82.9681 395.535 84.2729H391.779ZM391.23 76.2487C388.299 76.2487 385.496 76.8166 385.496 79.3265C385.445 79.8974 385.623 80.4651 385.99 80.9048C386.358 81.3445 386.885 81.6203 387.456 81.6715C387.59 81.6898 387.725 81.6898 387.859 81.6715C388.568 81.6874 389.264 81.4778 389.847 81.0728C390.43 80.6679 390.869 80.0885 391.102 79.4181C391.19 79.121 391.233 78.8121 391.23 78.5021V76.2487Z"/>
<path d="M411.452 67.7847V70.9907H406.542V84.2728H402.383V71.009H397.547V67.7847H411.452Z"/>
<path d="M417.953 67.7847V72.9693C418.825 72.8294 419.708 72.762 420.591 72.7678C424.365 72.7678 428.34 74.0502 428.34 78.4104C428.374 79.2083 428.207 80.0019 427.855 80.7187C427.503 81.4355 426.977 82.0528 426.325 82.5141C424.058 83.8702 421.433 84.5088 418.796 84.3461C416.964 84.3461 415.296 84.3461 413.812 84.1079V67.7847H417.953ZM417.953 81.3966C418.559 81.4909 419.171 81.5398 419.785 81.5431C421.708 81.5431 424.145 80.9019 424.145 78.5752C424.145 76.2486 421.58 75.644 419.73 75.644C419.116 75.6435 418.502 75.6987 417.898 75.8089L417.953 81.3966Z"/>
<path d="M444.866 84.2727H440.744V77.714H439.187C438.712 77.698 438.24 77.7865 437.803 77.9732C437.366 78.16 436.976 78.4405 436.659 78.7949C435.702 79.9893 435.014 81.3768 434.644 82.862C434.456 83.3258 434.242 83.7785 434.003 84.2177H429.551C429.968 83.6552 430.307 83.039 430.558 82.3857C431.074 80.6668 431.913 79.0625 433.032 77.6591C433.562 77.1129 434.235 76.7258 434.974 76.5415V76.5415C433.885 76.5214 432.843 76.0948 432.053 75.3456C431.264 74.5964 430.783 73.5787 430.705 72.4928C430.703 71.679 430.942 70.8829 431.392 70.2047C431.842 69.5266 432.483 68.9969 433.233 68.6822C435.064 67.9174 437.04 67.5611 439.022 67.6379C440.976 67.6316 442.929 67.754 444.866 68.0043V84.2727ZM440.744 70.4226C440.068 70.2943 439.38 70.239 438.693 70.2577C436.861 70.2577 435.029 70.8989 435.029 72.7126C435.029 74.5263 437.08 75.1675 438.693 75.1675H440.744V70.4226Z"/>
<path d="M472.658 83.5397C470.798 84.2904 468.8 84.64 466.796 84.5657C459.578 84.5657 455.199 80.0406 455.199 73.1339C455.199 65.6409 460.384 61.1342 467.346 61.1342C469.229 61.062 471.106 61.406 472.842 62.1418L471.944 65.4394C470.537 64.8398 469.021 64.5403 467.492 64.56C462.875 64.56 459.523 67.4729 459.523 72.9324C459.523 77.9154 462.472 81.1215 467.455 81.1215C469.004 81.1366 470.541 80.8504 471.981 80.2787L472.658 83.5397Z"/>
<path d="M487.317 67.7847V70.9907H482.389V84.2728H478.248V71.009H473.32V67.7847H487.317Z"/>
<path d="M498.728 84.273L498.453 82.4409H498.306C497.713 83.1464 496.969 83.7089 496.128 84.0864C495.288 84.4639 494.372 84.6467 493.451 84.621C492.816 84.6633 492.178 84.5796 491.575 84.3749C490.972 84.1701 490.416 83.8483 489.937 83.4278C489.459 83.0074 489.068 82.4966 488.788 81.9248C488.508 81.3531 488.343 80.7316 488.303 80.096C488.295 79.9801 488.295 79.8637 488.303 79.7479C488.303 75.5892 491.967 73.5007 498.05 73.5373V73.2809C498.05 72.2 497.61 70.4229 494.715 70.4229C493.162 70.4247 491.638 70.8422 490.3 71.632L489.476 68.939C491.293 67.9429 493.34 67.4437 495.412 67.4917C500.669 67.4917 502.19 70.826 502.19 74.3984V80.3341C502.168 81.6512 502.248 82.9681 502.428 84.273H498.728ZM498.178 76.2487C495.247 76.2487 492.462 76.8167 492.462 79.3265C492.411 79.8974 492.589 80.4651 492.957 80.9048C493.324 81.3446 493.851 81.6203 494.422 81.6715C494.55 81.6898 494.679 81.6898 494.807 81.6715C495.516 81.6874 496.213 81.4778 496.795 81.0729C497.378 80.6679 497.817 80.0885 498.05 79.4181C498.147 79.123 498.191 78.8127 498.178 78.5021V76.2487Z"/>
<path d="M506.609 73.2805C506.609 71.1187 506.609 69.3783 506.48 67.7844H510.145L510.346 70.3126C510.958 69.3849 511.798 68.6309 512.787 68.1238C513.776 67.6166 514.878 67.3735 515.989 67.418C519.763 67.418 522.895 70.6424 522.895 75.772C522.895 81.7078 519.231 84.5657 515.402 84.5657C514.523 84.6127 513.646 84.4435 512.848 84.073C512.05 83.7026 511.354 83.1421 510.822 82.4406V82.4406V90.9228H506.664L506.609 73.2805ZM510.767 77.3659C510.755 77.7487 510.798 78.1314 510.896 78.5017C511.071 79.3384 511.533 80.0876 512.202 80.6195C512.871 81.1515 513.705 81.4327 514.56 81.4146C517.179 81.4146 518.737 79.2162 518.737 75.9186C518.737 73.024 517.326 70.6607 514.651 70.6607C513.782 70.6813 512.945 70.9973 512.279 71.5567C511.613 72.1161 511.158 72.8856 510.987 73.7385C510.878 74.0757 510.822 74.4281 510.822 74.7827L510.767 77.3659Z"/>
<path d="M530.406 67.7847V80.9935H535.206V67.7847H539.31V80.9935H544.11V67.7847H548.195V84.2728H526.211V67.7847H530.406Z"/>
<path d="M556.494 67.7847V73.6838C556.494 76.2852 556.402 78.0256 556.274 80.334H556.365C557.245 78.502 557.758 77.1829 558.6 75.4791L562.631 67.7847H567.669V84.2728H563.712V78.4104C563.712 75.7723 563.822 74.5631 563.987 71.467H563.858C563.034 73.4273 562.503 74.5998 561.696 76.1753C560.414 78.6119 558.93 81.6714 557.519 84.2728H552.555V67.7847H556.494Z"/>
<path d="M574.992 77.1831C575.102 80.1326 577.429 81.4151 580.067 81.4151C581.614 81.4568 583.155 81.2082 584.61 80.6823L585.215 83.5402C583.389 84.254 581.441 84.6025 579.481 84.5661C578.463 84.6593 577.437 84.5506 576.461 84.2463C575.485 83.942 574.579 83.448 573.794 82.7927C573.009 82.1375 572.362 81.3338 571.888 80.4278C571.415 79.5217 571.125 78.5312 571.035 77.5129C570.999 77.0984 570.999 76.6815 571.035 76.2671C571.035 71.7054 573.802 67.4368 579.059 67.4368C584.317 67.4368 586.149 71.8153 586.149 75.4244C586.165 76.0385 586.116 76.6526 586.003 77.2564L574.992 77.1831ZM582.211 74.2702C582.336 73.3424 582.088 72.4028 581.521 71.6575C580.954 70.9122 580.115 70.4221 579.188 70.2947H578.803C577.78 70.3635 576.821 70.8142 576.115 71.5574C575.409 72.3006 575.008 73.282 574.992 74.3068L582.211 74.2702Z"/>
<path d="M612.903 83.5402C611.043 84.2893 609.045 84.6388 607.041 84.5661C599.823 84.5661 595.426 80.041 595.426 73.1343C595.426 65.6414 600.629 61.1346 607.572 61.1346C609.455 61.0724 611.33 61.4161 613.068 62.1422L612.152 65.4398C610.745 64.8403 609.229 64.5408 607.7 64.5605C603.084 64.5605 599.749 67.4734 599.749 72.9328C599.749 77.9159 602.681 81.1219 607.664 81.1219C609.212 81.137 610.749 80.8508 612.189 80.2792L612.903 83.5402Z"/>
<path d="M618.528 77.1831C618.619 80.1326 620.946 81.4151 623.584 81.4151C625.132 81.4657 626.674 81.2169 628.127 80.6823L628.75 83.5402C626.924 84.254 624.976 84.6025 623.016 84.5661C622 84.6619 620.976 84.5562 620.001 84.2552C619.027 83.9541 618.121 83.4635 617.336 82.8116C616.552 82.1597 615.903 81.3593 615.429 80.4563C614.954 79.5533 614.662 78.5655 614.57 77.5495C614.534 77.1228 614.534 76.6938 614.57 76.2671C614.57 71.7054 617.337 67.4368 622.595 67.4368C627.853 67.4368 629.666 71.8153 629.666 75.4244C629.678 76.0376 629.635 76.6508 629.538 77.2564L618.528 77.1831ZM625.746 74.2702C625.871 73.3424 625.623 72.4028 625.056 71.6575C624.49 70.9122 623.65 70.4221 622.723 70.2947H622.338C621.314 70.3594 620.352 70.8088 619.645 71.5529C618.939 72.297 618.539 73.2807 618.528 74.3068L625.746 74.2702Z"/>
<path d="M645.057 83.723C643.578 84.3122 641.995 84.5987 640.403 84.5657C639.366 84.6406 638.325 84.5104 637.338 84.1826C636.352 83.8548 635.439 83.3358 634.653 82.6553C633.867 81.9747 633.223 81.146 632.757 80.2164C632.292 79.2869 632.014 78.2747 631.94 77.2377C631.921 76.8776 631.921 76.5168 631.94 76.1568C631.86 73.9098 632.677 71.7234 634.209 70.0779C635.741 68.4324 637.863 67.4626 640.11 67.3814C640.44 67.3631 640.77 67.3631 641.1 67.3814C642.475 67.3688 643.839 67.6304 645.112 68.1508L644.361 71.247C643.376 70.8052 642.307 70.5863 641.228 70.6058C639.932 70.5712 638.675 71.0507 637.731 71.9396C636.787 72.8286 636.233 74.0548 636.19 75.3507C636.19 75.5522 636.19 75.7354 636.19 75.9369C636.078 77.2245 636.482 78.5037 637.314 79.4932C638.145 80.4827 639.336 81.1014 640.623 81.2131H641.21C642.339 81.2433 643.462 81.0374 644.507 80.6086L645.057 83.723Z"/>
<path d="M660.794 67.7847V70.9907H655.865V84.2728H651.707V71.009H646.797V67.7847H660.794Z"/>
<path d="M663.193 73.2807C663.193 71.119 663.193 69.3785 663.047 67.7847H666.711L666.912 70.3129C667.518 69.3841 668.355 68.6288 669.342 68.1213C670.328 67.6138 671.429 67.3716 672.537 67.4183C676.311 67.4183 679.462 70.6426 679.462 75.7723C679.462 81.708 675.798 84.566 671.969 84.566C671.093 84.6099 670.219 84.4393 669.424 84.0689C668.629 83.6986 667.937 83.1397 667.407 82.4408V82.4408V90.9231H663.193V73.2807ZM667.334 77.3661C667.327 77.7499 667.376 78.1325 667.48 78.502C667.655 79.3387 668.117 80.0878 668.787 80.6198C669.456 81.1517 670.29 81.433 671.144 81.4149C673.782 81.4149 675.34 79.2165 675.34 75.9188C675.34 73.0242 673.911 70.6609 671.254 70.6609C670.388 70.6913 669.556 71.0108 668.892 71.5685C668.228 72.1263 667.77 72.8903 667.59 73.7387C667.482 74.0763 667.426 74.4285 667.425 74.783L667.334 77.3661Z"/>
<path d="M687.01 67.7847V72.9693C687.877 72.8377 688.753 72.7704 689.63 72.7678C693.294 72.7678 696.958 74.2883 696.958 78.4104C696.982 79.1966 696.811 79.9765 696.459 80.6801C696.107 81.3836 695.586 81.9887 694.943 82.4408C692.849 83.7779 690.387 84.4191 687.908 84.2728C686.076 84.2728 684.39 84.2728 682.906 84.0347V67.7847H687.01ZM687.01 81.4332C687.618 81.5063 688.23 81.543 688.842 81.5431C690.802 81.5431 692.854 80.7553 692.854 78.5386C692.854 76.3219 690.876 75.644 689.025 75.644C688.368 75.6435 687.713 75.6987 687.065 75.8089L687.01 81.4332ZM703.003 67.7847V84.2728H698.863V67.7847H703.003Z"/>
</svg>
