<svg width="540" height="460" viewBox="0 0 54 46" fill="none" xmlns="http://www.w3.org/2000/svg"><path d="M48.719 29.557C48.9 37.21 32.677 41.81 23.217 45.953c0 0 19.103-4.28 25.867-10.247 4.296-3.78 3.84-13.664-7.312-12.115-.091 0-.366.41-.457.41 0 0 7.312.546 7.404 5.556z" fill="#224CFF"/><path d="M11.885 15.257c-.823-.227-1.783-.5-2.834-.728l-.32-1.321S29.846 23.318 52.514.82c.457-.456.777-.82.777-.82s-.274 1.275-.229 1.23c0 0-.96.683-2.148 2.277-1.873 2.55-3.702 7.424-.64 16.67l-1.005.682s-.731-6.285-3.976-4.372c-1.782 1.048-2.742 7.15-2.742 7.15l-1.417.41s4.936-13.89-3.29-11.659c-7.313 2.05-10.786 8.062-13.208 33.157 0 .182-1.417.455-1.417.455s2.102-13.663-4.113-13.345c-5.073.228-13.94 12.98-13.94 12.98h-2.01c.045-.045 23.993-26.233 8.729-30.378z" fill="#224CFF"/><path d="M24.132 14.028c1.873 0 3.839-1.73 4.387-3.871.549-2.14-.457-3.871-2.33-3.871-1.875 0-3.84 1.73-4.388 3.87-.594 2.141.457 3.872 2.33 3.872zM43.42 6.74c1.416-.546 2.376-2.186 2.147-3.643-.228-1.503-1.6-2.232-3.016-1.731-1.417.547-2.377 2.186-2.148 3.644.228 1.503 1.554 2.277 3.016 1.73zM2.286 44.588a1.13 1.13 0 0 1-1.143 1.138A1.13 1.13 0 0 1 0 44.588a1.13 1.13 0 0 1 1.143-1.139c.64 0 1.143.501 1.143 1.139zm-2.149 0c0 .592.457 1.047 1.006 1.047.594 0 1.005-.455 1.005-1.047 0-.592-.411-1.048-1.005-1.048-.594 0-1.006.456-1.006 1.048zm.686-.046h.274c.183 0 .411 0 .411-.273 0-.228-.182-.273-.32-.273H.823v.546zm-.092-.638h.503c.32 0 .457.137.457.365 0 .228-.137.319-.365.364l.411.592H1.6l-.412-.592H.823v.592H.73v-1.32z" fill="#224CFF"/></svg>