<svg width="384" height="82" viewBox="0 0 384 82" fill="none" xmlns="http://www.w3.org/2000/svg">
<path d="M86 52.44C86.26 66 57.66 74.11 41 81.49C41 81.49 74.69 73.89 86.66 63.33C94.27 56.61 93.46 39.13 73.76 41.87C73.59 41.87 73.08 42.57 72.91 42.6C72.91 42.6 85.81 43.6 86.01 52.44" fill="#224CFF"/>
<path d="M21.0016 27.11C19.5716 26.73 17.8416 26.23 16.0016 25.81L15.4616 23.43C15.4616 23.43 52.6916 41.32 92.6816 1.43C93.4716 0.67 94.0716 0 94.0716 0C94.0716 0 93.6316 2.28 93.6716 2.19C92.2292 3.33207 90.9623 4.67978 89.9116 6.19C86.6316 10.68 83.3816 19.35 88.7516 35.67L87.0016 36.9C87.0016 36.9 85.7416 25.78 80.0016 29.16C76.8816 31 75.1516 41.78 75.1516 41.78L72.5816 42.72C72.5816 42.72 81.3316 18.15 66.7816 22.11C53.8416 25.65 47.6916 36.35 43.4916 80.72C43.4916 81.08 40.9616 81.49 40.9616 81.49C40.9616 81.49 44.6616 57.33 33.7316 57.87C24.7916 58.31 9.13156 80.87 9.13156 80.87H5.60156C5.60156 80.87 47.9016 34.5 21.0016 27.15" fill="#224CFF"/>
<path d="M42.5203 25C45.8003 25 49.2703 21.93 50.2703 18.14C51.2703 14.35 49.4203 11.27 46.1503 11.27C42.8803 11.27 39.4003 14.34 38.4003 18.14C37.4003 21.94 39.2503 25 42.5203 25Z" fill="#224CFF"/>
<path d="M86 52.45C86.26 66 57.66 74.12 41 81.5C41 81.5 74.69 73.9 86.66 63.34C94.27 56.62 93.46 39.14 73.75 41.88C73.59 41.88 73.08 42.58 72.91 42.6C72.91 42.6 85.81 43.6 86 52.45Z" fill="#224CFF"/>
<path d="M20.9416 27.13C19.5216 26.74 17.7916 26.24 15.9416 25.82L15.4116 23.45C15.4116 23.45 52.6416 41.33 92.6316 1.45C93.4716 0.68 94.0716 0 94.0716 0C94.0716 0 93.6316 2.28 93.6716 2.19C92.2292 3.33207 90.9623 4.67978 89.9116 6.19C86.6216 10.68 83.3816 19.35 88.7516 35.67L87.0016 36.9C87.0016 36.9 85.7316 25.78 80.0016 29.16C76.8816 31 75.1516 41.79 75.1516 41.79L72.5816 42.73C72.5816 42.73 81.3316 18.15 66.7816 22.12C53.8416 25.66 47.6816 36.36 43.4816 80.73C43.4816 81.09 40.9616 81.5 40.9616 81.5C40.9616 81.5 44.6616 57.34 33.7316 57.88C24.7816 58.32 9.13156 80.88 9.13156 80.88H5.60156C5.60156 80.88 47.9016 34.51 20.9416 27.17" fill="#224CFF"/>
<path d="M42.5203 25C45.8003 25 49.2603 21.93 50.2603 18.13C51.2603 14.33 49.4203 11.27 46.1403 11.27C42.8603 11.27 39.4003 14.34 38.4003 18.13C37.4003 21.92 39.2503 25 42.5203 25Z" fill="#224CFF"/>
<path d="M76.559 12.0801C77.8132 11.5654 78.8646 10.6544 79.5525 9.48613C80.2405 8.31788 80.5272 6.95659 80.369 5.6101C80.3119 5.11829 80.1584 4.64255 79.9175 4.21003C79.6765 3.77752 79.3527 3.3967 78.9645 3.08934C78.5764 2.78197 78.1315 2.55407 77.6552 2.41865C77.179 2.28324 76.6808 2.24295 76.189 2.3001C75.8015 2.34313 75.4234 2.44778 75.069 2.6101C73.8127 3.12203 72.7593 4.03249 72.071 5.20146C71.3826 6.37043 71.0973 7.73317 71.259 9.0801C71.3161 9.57191 71.4695 10.0477 71.7105 10.4802C71.9514 10.9127 72.2752 11.2935 72.6634 11.6009C73.0515 11.9082 73.4964 12.1361 73.9727 12.2715C74.4489 12.407 74.9472 12.4473 75.439 12.3901C75.8264 12.3471 76.2045 12.2424 76.559 12.0801Z" fill="#224CFF"/>
<path d="M1.28 77.8701H2.16C2.7 77.8701 2.93 78.1001 2.93 78.5201C2.92763 78.683 2.86321 78.8389 2.74986 78.956C2.63651 79.073 2.48277 79.1425 2.32 79.1501L3 80.2301H2.8L2.09 79.1401H1.48V80.2301H1.28V77.8701ZM1.48 79.0001H2C2.36 79.0001 2.75 79.0001 2.75 78.5501C2.75 78.1001 2.43 78.0901 2.15 78.0901H1.48V79.0001ZM0.210001 79.0001C0.210001 79.4748 0.39859 79.9301 0.73428 80.2658C1.06997 80.6015 1.52526 80.7901 2 80.7901C2.47474 80.7901 2.93003 80.6015 3.26572 80.2658C3.60141 79.9301 3.79 79.4748 3.79 79.0001C3.79802 78.7689 3.76039 78.5384 3.67927 78.3218C3.59815 78.1052 3.47513 77.9067 3.31725 77.7377C3.15936 77.5687 2.9697 77.4324 2.75912 77.3367C2.54854 77.2411 2.32117 77.1878 2.09 77.1801H2C1.76162 77.1773 1.52512 77.2227 1.30471 77.3135C1.08431 77.4044 0.884524 77.5388 0.717355 77.7088C0.550186 77.8788 0.419077 78.0808 0.331893 78.3027C0.24471 78.5246 0.20325 78.7618 0.210001 79.0001V79.0801V79.0001ZM4 79.0801C4 79.4756 3.8827 79.8623 3.66294 80.1912C3.44318 80.5201 3.13082 80.7765 2.76537 80.9278C2.39992 81.0792 1.99778 81.1188 1.60982 81.0416C1.22186 80.9645 0.865492 80.774 0.585787 80.4943C0.306082 80.2146 0.115601 79.8582 0.0384303 79.4703C-0.0387401 79.0823 0.000866562 78.6802 0.152242 78.3147C0.303617 77.9493 0.559962 77.6369 0.88886 77.4171C1.21776 77.1974 1.60444 77.0801 2 77.0801C2.53043 77.0801 3.03914 77.2908 3.41421 77.6659C3.78929 78.0409 4 78.5496 4 79.0801Z" fill="#224CFF"/>
<path d="M119.86 45.6C118.844 46.0097 117.754 46.2006 116.66 46.16C112.72 46.16 110.33 43.69 110.33 39.92C110.285 39.1029 110.402 38.2851 110.674 37.5133C110.946 36.7416 111.368 36.0312 111.915 35.4227C112.462 34.8142 113.124 34.3197 113.863 33.9675C114.601 33.6152 115.402 33.4122 116.22 33.37C116.462 33.35 116.707 33.35 116.95 33.37C117.977 33.336 119.001 33.5236 119.95 33.92L119.45 35.72C118.686 35.3915 117.861 35.2279 117.03 35.24C114.5 35.24 112.68 36.83 112.68 39.81C112.68 42.53 114.28 44.28 117.01 44.28C117.852 44.2882 118.687 44.1319 119.47 43.82L119.86 45.6Z" fill="#224CFF"/>
<path d="M127.851 37V38.75H125.161V46H122.901V38.76H120.211V37H127.851Z" fill="#224CFF"/>
<path d="M134.068 46L133.918 45H133.858C133.535 45.3857 133.129 45.6931 132.67 45.8992C132.211 46.1053 131.711 46.2047 131.208 46.19C130.86 46.2116 130.511 46.1644 130.181 46.0508C129.852 45.9373 129.547 45.7598 129.286 45.5285C129.025 45.2971 128.813 45.0165 128.66 44.7028C128.508 44.389 128.419 44.0482 128.398 43.7V43.53C128.398 41.26 130.398 40.12 133.718 40.14V40C133.718 39.41 133.478 38.44 131.888 38.44C131.041 38.441 130.208 38.6689 129.478 39.1L128.998 37.6C129.988 37.0518 131.107 36.779 132.238 36.81C135.108 36.81 135.938 38.63 135.938 40.58V43.82C135.937 44.5497 135.99 45.2784 136.098 46H134.068ZM133.768 41.62C132.168 41.62 130.638 41.93 130.638 43.3C130.611 43.6116 130.708 43.9215 130.908 44.1615C131.109 44.4015 131.397 44.5521 131.708 44.58C131.781 44.59 131.855 44.59 131.928 44.58C132.315 44.5856 132.694 44.47 133.011 44.2494C133.329 44.0288 133.569 43.7142 133.698 43.35C133.747 43.1878 133.77 43.0192 133.768 42.85V41.62Z" fill="#224CFF"/>
<path d="M138.371 40C138.371 38.82 138.371 37.87 138.301 37H140.301L140.411 38.38C140.742 37.873 141.198 37.4607 141.737 37.1837C142.275 36.9067 142.876 36.7745 143.481 36.8C145.551 36.8 147.261 38.56 147.261 41.36C147.261 44.6 145.261 46.16 143.171 46.16C142.691 46.1856 142.212 46.0933 141.776 45.8911C141.341 45.6888 140.961 45.3829 140.671 45V45V49.63H138.411L138.371 40ZM140.631 42.23C140.627 42.4394 140.654 42.6483 140.711 42.85C140.806 43.3067 141.059 43.7156 141.424 44.006C141.789 44.2963 142.244 44.4499 142.711 44.44C144.141 44.44 144.991 43.24 144.991 41.44C144.991 39.86 144.211 38.57 142.761 38.57C142.286 38.5812 141.83 38.7537 141.466 39.0591C141.103 39.3644 140.854 39.7844 140.761 40.25C140.698 40.4336 140.664 40.6259 140.661 40.82L140.631 42.23Z" fill="#224CFF"/>
<path d="M151.36 37V44.21H154V37H156.25V44.21H158.86V37H161.09V46H149.09V37H151.36Z" fill="#224CFF"/>
<path d="M165.6 37V40.22C165.6 41.64 165.6 42.59 165.47 43.85H165.53C166.01 42.85 166.28 42.13 166.74 41.2L169 37H171.74V46H169.59V42.8C169.59 41.36 169.65 40.7 169.74 39.01H169.66C169.22 40.08 168.93 40.72 168.49 41.58C167.79 42.91 166.98 44.58 166.2 46H163.5V37H165.6Z" fill="#224CFF"/>
<path d="M175.699 42.13C175.759 43.74 177.029 44.44 178.459 44.44C179.327 44.4615 180.19 44.312 180.999 44L181.329 45.56C180.333 45.9496 179.269 46.1399 178.199 46.12C177.645 46.1723 177.086 46.1146 176.554 45.9503C176.022 45.7859 175.527 45.5182 175.099 45.1623C174.671 44.8065 174.317 44.3696 174.058 43.8767C173.799 43.3838 173.639 42.8446 173.589 42.29C173.569 42.0571 173.569 41.8229 173.589 41.59C173.589 39.1 175.099 36.77 177.969 36.77C180.839 36.77 181.839 39.16 181.839 41.13C181.848 41.4652 181.821 41.8004 181.759 42.13H175.699ZM179.639 40.54C179.708 40.0351 179.574 39.5235 179.266 39.117C178.959 38.7105 178.504 38.442 177.999 38.37H177.789C177.23 38.4053 176.705 38.6506 176.319 39.0568C175.934 39.4629 175.716 39.9999 175.709 40.56L179.639 40.54Z" fill="#224CFF"/>
<path d="M195.15 33.5701V35.4301H189.74V38.1001C190.248 38.0369 190.759 38.0035 191.27 38.0001C192.456 37.9714 193.623 38.2988 194.62 38.9401C195.107 39.2701 195.501 39.7189 195.765 40.2439C196.029 40.7689 196.155 41.3528 196.13 41.9401C196.144 42.4503 196.05 42.9577 195.855 43.4296C195.661 43.9014 195.369 44.3274 195 44.6801C193.643 45.7081 191.96 46.2122 190.26 46.1001C189.331 46.1085 188.402 46.0517 187.48 45.9301V33.5701H195.15ZM189.74 44.3001C190.138 44.3533 190.539 44.3767 190.94 44.3701C191.735 44.3964 192.51 44.1214 193.11 43.6001C193.323 43.3885 193.489 43.1355 193.599 42.8568C193.709 42.578 193.761 42.2796 193.75 41.9801C193.761 41.6544 193.692 41.3312 193.549 41.0384C193.406 40.7456 193.194 40.4921 192.93 40.3001C192.321 39.8877 191.596 39.681 190.86 39.7101C190.486 39.7168 190.112 39.7435 189.74 39.7901V44.3001Z" fill="#224CFF"/>
<path d="M198 40C198 38.82 198 37.87 197.93 37H199.93L200.04 38.38C200.37 37.873 200.827 37.4607 201.366 37.1837C201.904 36.9067 202.505 36.7745 203.11 36.8C205.18 36.8 206.89 38.56 206.89 41.36C206.89 44.6 204.84 46.16 202.8 46.16C202.327 46.179 201.856 46.0835 201.427 45.8815C200.999 45.6796 200.626 45.3771 200.34 45V45V49.63H198V40ZM200.26 42.23C200.256 42.4394 200.283 42.6483 200.34 42.85C200.435 43.3067 200.687 43.7156 201.053 44.006C201.418 44.2963 201.873 44.4499 202.34 44.44C203.78 44.44 204.63 43.24 204.63 41.44C204.63 39.86 203.85 38.57 202.4 38.57C201.925 38.5812 201.468 38.7537 201.105 39.0591C200.741 39.3644 200.493 39.7844 200.4 40.25C200.337 40.4336 200.303 40.6259 200.3 40.82L200.26 42.23Z" fill="#224CFF"/>
<path d="M213.851 46L213.701 45H213.641C213.318 45.3818 212.913 45.6854 212.456 45.8881C211.998 46.0907 211.501 46.1871 211.001 46.17C210.653 46.1917 210.304 46.1444 209.974 46.0309C209.645 45.9174 209.34 45.7398 209.079 45.5085C208.818 45.2772 208.605 44.9966 208.453 44.6828C208.301 44.369 208.212 44.0282 208.191 43.68V43.51C208.191 41.24 210.191 40.1 213.511 40.12V40C213.511 39.41 213.271 38.44 211.681 38.44C210.834 38.441 210.001 38.6689 209.271 39.1L208.831 37.63C209.821 37.0818 210.94 36.809 212.071 36.84C214.941 36.84 215.771 38.66 215.771 40.61V43.85C215.759 44.569 215.803 45.2878 215.901 46H213.851ZM213.551 41.62C211.951 41.62 210.421 41.93 210.421 43.3C210.394 43.6116 210.491 43.9215 210.691 44.1615C210.892 44.4016 211.18 44.5521 211.491 44.58C211.564 44.59 211.638 44.59 211.711 44.58C212.099 44.5887 212.479 44.4743 212.797 44.2533C213.115 44.0322 213.355 43.716 213.481 43.35C213.53 43.1878 213.553 43.0193 213.551 42.85V41.62Z" fill="#224CFF"/>
<path d="M224.59 37V38.75H221.91V46H219.64V38.76H217V37H224.59Z" fill="#224CFF"/>
<path d="M228.139 37V39.83C228.615 39.7536 229.097 39.7168 229.579 39.72C231.639 39.72 233.809 40.42 233.809 42.8C233.827 43.2355 233.736 43.6687 233.544 44.06C233.352 44.4513 233.065 44.7882 232.709 45.04C231.471 45.7802 230.038 46.1288 228.599 46.04C227.599 46.04 226.689 46.04 225.879 45.91V37H228.139ZM228.139 44.43C228.47 44.4815 228.804 44.5082 229.139 44.51C230.189 44.51 231.519 44.16 231.519 42.89C231.519 41.62 230.119 41.29 229.109 41.29C228.774 41.2897 228.439 41.3198 228.109 41.38L228.139 44.43Z" fill="#224CFF"/>
<path d="M242.829 45.9999H240.579V42.4199H239.729C239.47 42.4111 239.212 42.4594 238.973 42.5614C238.735 42.6633 238.522 42.8165 238.349 43.0099C237.826 43.6619 237.451 44.4192 237.249 45.2299C237.146 45.4831 237.03 45.7302 236.899 45.9699H234.469C234.696 45.6629 234.881 45.3265 235.019 44.9699C235.3 44.0317 235.758 43.1559 236.369 42.3899C236.658 42.0918 237.025 41.8805 237.429 41.7799V41.7799C236.835 41.7689 236.266 41.5361 235.835 41.1271C235.404 40.7181 235.141 40.1627 235.099 39.5699C235.098 39.1257 235.228 38.6911 235.474 38.321C235.719 37.9508 236.069 37.6617 236.479 37.4899C237.478 37.0725 238.557 36.8779 239.639 36.9199C240.705 36.9165 241.771 36.9833 242.829 37.1199V45.9999ZM240.579 38.4399C240.21 38.3698 239.834 38.3397 239.459 38.3499C238.459 38.3499 237.459 38.6999 237.459 39.6899C237.459 40.6799 238.579 41.0299 239.459 41.0299H240.579V38.4399Z" fill="#224CFF"/>
<path d="M257.999 45.5999C256.983 46.0096 255.893 46.2005 254.799 46.1599C250.859 46.1599 248.469 43.6899 248.469 39.9199C248.469 35.8299 251.299 33.3699 255.099 33.3699C256.127 33.3305 257.151 33.5183 258.099 33.9199L257.609 35.7199C256.841 35.3926 256.013 35.2291 255.179 35.2399C252.659 35.2399 250.829 36.8299 250.829 39.8099C250.829 42.5299 252.439 44.2799 255.159 44.2799C256.004 44.2881 256.843 44.1319 257.629 43.8199L257.999 45.5999Z" fill="#224CFF"/>
<path d="M265.999 37V38.75H263.309V46H261.049V38.76H258.359V37H265.999Z" fill="#224CFF"/>
<path d="M272.229 46.0001L272.079 45.0001H271.999C271.675 45.3852 271.269 45.6922 270.81 45.8983C270.351 46.1043 269.851 46.2041 269.349 46.1901C269.002 46.2132 268.654 46.1675 268.325 46.0557C267.996 45.944 267.692 45.7683 267.431 45.5388C267.17 45.3093 266.956 45.0305 266.803 44.7184C266.65 44.4063 266.56 44.067 266.539 43.7201C266.534 43.6569 266.534 43.5933 266.539 43.5301C266.539 41.2601 268.539 40.1201 271.859 40.1401V40.0001C271.859 39.4101 271.619 38.4401 270.039 38.4401C269.191 38.4411 268.359 38.669 267.629 39.1001L267.179 37.6301C268.17 37.0864 269.288 36.8139 270.419 36.8401C273.289 36.8401 274.119 38.6601 274.119 40.6101V43.8501C274.107 44.569 274.15 45.2878 274.249 46.0001H272.229ZM271.929 41.6201C270.329 41.6201 268.809 41.9301 268.809 43.3001C268.781 43.6117 268.878 43.9216 269.079 44.1616C269.279 44.4016 269.567 44.5522 269.879 44.5801C269.948 44.5901 270.019 44.5901 270.089 44.5801C270.476 44.5888 270.856 44.4744 271.174 44.2533C271.492 44.0323 271.732 43.7161 271.859 43.3501C271.912 43.189 271.936 43.0196 271.929 42.8501V41.6201Z" fill="#224CFF"/>
<path d="M276.531 39.9999C276.531 38.8199 276.531 37.8699 276.461 36.9999H278.461L278.571 38.3799C278.905 37.8736 279.364 37.462 279.903 37.1852C280.443 36.9084 281.045 36.7757 281.651 36.7999C283.711 36.7999 285.421 38.5599 285.421 41.3599C285.421 44.5999 283.421 46.1599 281.331 46.1599C280.851 46.1856 280.372 46.0933 279.937 45.891C279.501 45.6888 279.121 45.3829 278.831 44.9999V44.9999V49.6299H276.561L276.531 39.9999ZM278.801 42.2299C278.794 42.4389 278.818 42.6478 278.871 42.8499C278.966 43.3067 279.219 43.7156 279.584 44.0059C279.949 44.2963 280.404 44.4498 280.871 44.4399C282.301 44.4399 283.151 43.2399 283.151 41.4399C283.151 39.8599 282.381 38.5699 280.921 38.5699C280.446 38.5812 279.99 38.7537 279.626 39.059C279.263 39.3644 279.014 39.7844 278.921 40.2499C278.861 40.434 278.831 40.6264 278.831 40.8199L278.801 42.2299Z" fill="#224CFF"/>
<path d="M289.52 37V44.21H292.14V37H294.38V44.21H297V37H299.23V46H287.23V37H289.52Z" fill="#224CFF"/>
<path d="M303.759 37V40.22C303.759 41.64 303.709 42.59 303.639 43.85H303.689C304.169 42.85 304.449 42.13 304.909 41.2L307.109 37H309.859V46H307.699V42.8C307.699 41.36 307.759 40.7 307.849 39.01H307.779C307.329 40.08 307.039 40.72 306.599 41.58C305.899 42.91 305.089 44.58 304.319 46H301.609V37H303.759Z" fill="#224CFF"/>
<path d="M313.859 42.1301C313.919 43.7401 315.189 44.4401 316.629 44.4401C317.473 44.4628 318.314 44.3272 319.109 44.0401L319.439 45.6001C318.442 45.9897 317.379 46.1799 316.309 46.1601C315.753 46.2109 315.193 46.1516 314.66 45.9855C314.127 45.8194 313.633 45.5497 313.204 45.1921C312.776 44.8344 312.423 44.3957 312.164 43.9011C311.906 43.4066 311.748 42.8659 311.699 42.3101C311.679 42.0838 311.679 41.8563 311.699 41.6301C311.699 39.1401 313.209 36.8101 316.079 36.8101C318.949 36.8101 319.949 39.2001 319.949 41.1701C319.957 41.5053 319.93 41.8405 319.869 42.1701L313.859 42.1301ZM317.799 40.5401C317.867 40.0336 317.732 39.5207 317.422 39.1139C317.113 38.7071 316.655 38.4396 316.149 38.3701H315.939C315.38 38.4076 314.857 38.6536 314.471 39.0593C314.086 39.465 313.867 40.0006 313.859 40.5601L317.799 40.5401Z" fill="#224CFF"/>
<path d="M334.552 45.6001C333.536 46.009 332.446 46.1998 331.352 46.1601C327.412 46.1601 325.012 43.6901 325.012 39.9201C325.012 35.8301 327.852 33.3701 331.642 33.3701C332.67 33.3362 333.693 33.5238 334.642 33.9201L334.142 35.7201C333.374 35.3928 332.546 35.2294 331.712 35.2401C329.192 35.2401 327.372 36.8301 327.372 39.8101C327.372 42.5301 328.972 44.2801 331.692 44.2801C332.537 44.2884 333.376 44.1321 334.162 43.8201L334.552 45.6001Z" fill="#224CFF"/>
<path d="M337.62 42.1301C337.67 43.7401 338.94 44.4401 340.38 44.4401C341.225 44.4677 342.067 44.3319 342.86 44.0401L343.2 45.6001C342.204 45.9897 341.14 46.1799 340.07 46.1601C339.516 46.2123 338.957 46.1547 338.425 45.9903C337.893 45.826 337.398 45.5582 336.97 45.2024C336.542 44.8465 336.188 44.4096 335.929 43.9167C335.67 43.4238 335.511 42.8846 335.46 42.3301C335.44 42.0972 335.44 41.863 335.46 41.6301C335.46 39.1401 336.97 36.8101 339.84 36.8101C342.71 36.8101 343.7 39.2001 343.7 41.1701C343.707 41.5048 343.683 41.8395 343.63 42.1701L337.62 42.1301ZM341.56 40.5401C341.629 40.0336 341.493 39.5207 341.184 39.1139C340.875 38.7071 340.417 38.4396 339.91 38.3701H339.7C339.141 38.4053 338.616 38.6507 338.23 39.0568C337.845 39.463 337.627 39.9999 337.62 40.5601L341.56 40.5401Z" fill="#224CFF"/>
<path d="M352.101 45.7C351.294 46.0216 350.43 46.178 349.561 46.16C348.995 46.2008 348.427 46.1297 347.888 45.9508C347.349 45.7719 346.851 45.4886 346.422 45.1171C345.993 44.7457 345.642 44.2933 345.387 43.7859C345.133 43.2785 344.982 42.726 344.941 42.16C344.931 41.9634 344.931 41.7665 344.941 41.57C344.898 40.3435 345.343 39.15 346.18 38.2518C347.016 37.3537 348.175 36.8243 349.401 36.78C349.581 36.77 349.761 36.77 349.941 36.78C350.692 36.7731 351.436 36.9159 352.131 37.2L351.721 38.89C351.184 38.6488 350.6 38.5293 350.011 38.54C349.304 38.5211 348.617 38.7828 348.102 39.268C347.587 39.7533 347.285 40.4226 347.261 41.13C347.261 41.24 347.261 41.34 347.261 41.45C347.2 42.1528 347.421 42.851 347.875 43.3911C348.328 43.9312 348.978 44.2689 349.681 44.33H350.001C350.618 44.3464 351.231 44.234 351.801 44L352.101 45.7Z" fill="#224CFF"/>
<path d="M360.691 37V38.75H358.001V46H355.731V38.76H353.051V37H360.691Z" fill="#224CFF"/>
<path d="M362.002 40C362.002 38.82 362.002 37.87 361.922 37H363.922L364.032 38.38C364.363 37.873 364.82 37.4607 365.358 37.1837C365.896 36.9067 366.497 36.7745 367.102 36.8C369.162 36.8 370.882 38.56 370.882 41.36C370.882 44.6 368.882 46.16 366.792 46.16C366.314 46.184 365.837 46.0908 365.403 45.8887C364.969 45.6865 364.591 45.3814 364.302 45V45V49.63H362.002V40ZM364.262 42.23C364.258 42.4394 364.285 42.6483 364.342 42.85C364.437 43.3067 364.69 43.7156 365.055 44.006C365.42 44.2963 365.875 44.4499 366.342 44.44C367.782 44.44 368.632 43.24 368.632 41.44C368.632 39.86 367.852 38.57 366.402 38.57C365.929 38.5865 365.475 38.7609 365.112 39.0654C364.75 39.3698 364.5 39.7869 364.402 40.25C364.343 40.4342 364.312 40.6265 364.312 40.82L364.262 42.23Z" fill="#224CFF"/>
<path d="M375.002 37V39.83C375.475 39.7582 375.953 39.7214 376.432 39.72C378.432 39.72 380.432 40.55 380.432 42.8C380.445 43.2291 380.352 43.6549 380.16 44.0389C379.968 44.4229 379.683 44.7532 379.332 45C378.189 45.7298 376.845 46.0798 375.492 46C374.492 46 373.572 46 372.762 45.87V37H375.002ZM375.002 44.45C375.334 44.4899 375.667 44.5099 376.002 44.51C377.072 44.51 378.192 44.08 378.192 42.87C378.192 41.66 377.112 41.29 376.102 41.29C375.743 41.2897 375.385 41.3198 375.032 41.38L375.002 44.45ZM383.732 37V46H381.472V37H383.732Z" fill="#224CFF"/>
</svg>
