<svg width="704" height="150" viewBox="0 0 704 150" fill="none" xmlns="http://www.w3.org/2000/svg">
<path d="M157.554 96.071C158.03 120.913 105.635 135.771 75.1133 149.291C75.1133 149.291 136.834 135.368 158.763 116.022C172.705 103.711 171.221 71.6869 135.13 76.7066C134.819 76.7066 133.884 77.989 133.573 78.044C133.573 78.044 157.206 79.876 157.572 96.071" fill="#F8D162"/>
<path d="M38.4748 49.666C35.855 48.9698 32.6856 48.0538 29.3147 47.2844L28.3254 42.9242C28.3254 42.9242 96.5314 75.6989 169.794 2.61978C171.241 1.22745 172.34 0 172.34 0C172.34 0 171.534 4.177 171.607 4.01212C168.965 6.1044 166.644 8.57344 164.719 11.3402C158.71 19.5659 152.756 35.4495 162.594 65.348L159.388 67.6014C159.388 67.6014 157.08 47.2294 146.564 53.4216C140.848 56.7925 137.679 76.5417 137.679 76.5417L132.97 78.2638C132.97 78.2638 149 33.2511 122.345 40.5059C98.6382 46.9912 87.3713 66.5938 79.6769 147.88C79.6769 148.54 75.0418 149.291 75.0418 149.291C75.0418 149.291 81.8203 105.03 61.7964 106.019C45.4181 106.825 16.7287 148.155 16.7287 148.155H10.2617C10.2617 148.155 87.756 63.2046 38.4748 49.7393" fill="#F8D162"/>
<path d="M77.8968 45.8004C83.9058 45.8004 90.2629 40.1762 92.0949 33.2328C93.9269 26.2895 90.5377 20.6469 84.547 20.6469C78.5563 20.6469 72.1809 26.2711 70.3488 33.2328C68.5168 40.1945 71.9061 45.8004 77.8968 45.8004Z" fill="#F8D162"/>
<path d="M157.554 96.0893C158.03 120.913 105.635 135.789 75.1133 149.309C75.1133 149.309 136.834 135.386 158.763 116.04C172.705 103.729 171.221 71.7052 135.112 76.7249C134.819 76.7249 133.884 78.0073 133.573 78.044C133.573 78.044 157.206 79.876 157.554 96.0893Z" fill="#F8D162"/>
<path d="M38.3649 49.7026C35.7634 48.9881 32.594 48.0721 29.2048 47.3027L28.2338 42.9608C28.2338 42.9608 96.4398 75.7173 169.702 2.65643C171.241 1.24577 172.34 0 172.34 0C172.34 0 171.534 4.177 171.607 4.01212C168.965 6.1044 166.644 8.57344 164.719 11.3402C158.692 19.5659 152.756 35.4495 162.594 65.348L159.388 67.6014C159.388 67.6014 157.061 47.2294 146.564 53.4216C140.848 56.7925 137.679 76.56 137.679 76.56L132.97 78.2821C132.97 78.2821 149 33.2511 122.345 40.5242C98.6382 47.0096 87.353 66.6122 79.6585 147.899C79.6585 148.558 75.0418 149.309 75.0418 149.309C75.0418 149.309 81.8203 105.048 61.7964 106.037C45.3998 106.843 16.7287 148.174 16.7287 148.174H10.2617C10.2617 148.174 87.756 63.2229 38.3649 49.7759" fill="#F8D162"/>
<path d="M77.8968 45.8004C83.9058 45.8004 90.2445 40.1762 92.0766 33.2145C93.9086 26.2528 90.5377 20.6469 84.5287 20.6469C78.5196 20.6469 72.1809 26.2711 70.3488 33.2145C68.5168 40.1578 71.9061 45.8004 77.8968 45.8004Z" fill="#F8D162"/>
<path d="M140.259 22.1309C142.557 21.188 144.483 19.519 145.744 17.3787C147.004 15.2384 147.529 12.7445 147.239 10.2777C147.135 9.37674 146.854 8.50517 146.412 7.71279C145.971 6.92042 145.377 6.22276 144.666 5.65966C143.955 5.09656 143.14 4.67905 142.268 4.43096C141.395 4.18287 140.482 4.10907 139.581 4.21377C138.872 4.29259 138.179 4.48432 137.53 4.78169C135.228 5.71956 133.298 7.38754 132.037 9.52912C130.776 11.6707 130.253 14.1672 130.55 16.6348C130.654 17.5358 130.935 18.4074 131.377 19.1998C131.818 19.9922 132.411 20.6898 133.123 21.2529C133.834 21.816 134.649 22.2335 135.521 22.4816C136.394 22.7297 137.306 22.8035 138.207 22.6988C138.917 22.62 139.61 22.4283 140.259 22.1309Z" fill="#F8D162"/>
<path d="M2.34498 142.659H3.95716C4.94645 142.659 5.36781 143.081 5.36781 143.85C5.36347 144.149 5.24544 144.434 5.03778 144.649C4.83013 144.863 4.54848 144.99 4.25028 145.004L5.49605 146.983H5.12965L3.82892 144.986H2.71139V146.983H2.34498V142.659ZM2.71139 144.729H3.66404C4.32356 144.729 5.03805 144.729 5.03805 143.905C5.03805 143.081 4.4518 143.062 3.93884 143.062H2.71139V144.729ZM0.384725 144.729C0.384725 145.599 0.730223 146.433 1.34521 147.048C1.9602 147.663 2.79431 148.009 3.66404 148.009C4.53376 148.009 5.36787 147.663 5.98286 147.048C6.59785 146.433 6.94335 145.599 6.94335 144.729C6.95803 144.306 6.8891 143.884 6.74048 143.487C6.59187 143.09 6.3665 142.726 6.07725 142.417C5.788 142.107 5.44055 141.857 5.05476 141.682C4.66898 141.507 4.25242 141.409 3.82892 141.395H3.66404C3.22731 141.39 2.79405 141.473 2.39026 141.64C1.98647 141.806 1.62046 142.052 1.31421 142.364C1.00795 142.675 0.767755 143.045 0.608034 143.452C0.448313 143.858 0.372358 144.293 0.384725 144.729V144.876V144.729ZM7.32807 144.876C7.32807 145.601 7.11318 146.309 6.71057 146.912C6.30796 147.514 5.73572 147.984 5.0662 148.261C4.39669 148.538 3.65997 148.611 2.94922 148.47C2.23847 148.328 1.5856 147.979 1.07317 147.467C0.560748 146.954 0.211783 146.302 0.070405 145.591C-0.0709725 144.88 0.00158756 144.143 0.27891 143.474C0.556232 142.804 1.02586 142.232 1.62841 141.829C2.23095 141.427 2.93936 141.212 3.66404 141.212C4.6358 141.212 5.56776 141.598 6.2549 142.285C6.94204 142.972 7.32807 143.904 7.32807 144.876Z" fill="#F8D162"/>
<path d="M219.585 83.54C217.725 84.2907 215.727 84.6403 213.723 84.5659C206.505 84.5659 202.126 80.0408 202.126 73.1341C202.045 71.6372 202.259 70.1389 202.758 68.7251C203.256 67.3113 204.029 66.0097 205.031 64.895C206.034 63.7803 207.246 62.8743 208.599 62.229C209.953 61.5837 211.42 61.2117 212.917 61.1344C213.362 61.0978 213.809 61.0978 214.254 61.1344C216.137 61.0722 218.012 61.4159 219.75 62.142L218.834 65.4396C217.435 64.8379 215.924 64.5382 214.401 64.5603C209.766 64.5603 206.431 67.4732 206.431 72.9326C206.431 77.9157 209.363 81.1217 214.364 81.1217C215.907 81.1368 217.438 80.8505 218.871 80.279L219.585 83.54Z" fill="#224CFF"/>
<path d="M234.223 67.7847V70.9907H229.295V84.2728H225.155V71.009H220.227V67.7847H234.223Z" fill="#224CFF"/>
<path d="M245.614 84.2727L245.339 82.4407H245.229C244.637 83.1472 243.893 83.7105 243.052 84.088C242.211 84.4656 241.296 84.6478 240.375 84.6208C239.737 84.6605 239.097 84.5738 238.493 84.3659C237.889 84.1579 237.332 83.8327 236.853 83.4089C236.375 82.9851 235.985 82.471 235.706 81.8962C235.427 81.3213 235.264 80.697 235.227 80.0591V79.7476C235.227 75.589 238.891 73.5005 244.973 73.5371V73.2806C244.973 72.1997 244.533 70.4227 241.62 70.4227C240.067 70.4245 238.543 70.8419 237.205 71.6318L236.326 68.8838C238.139 67.8794 240.189 67.3797 242.262 67.4365C247.519 67.4365 249.04 70.7708 249.04 74.3432V80.2789C249.037 81.6157 249.135 82.9508 249.333 84.2727H245.614ZM245.065 76.2485C242.133 76.2485 239.33 76.8164 239.33 79.3263C239.279 79.8971 239.457 80.4649 239.825 80.9046C240.193 81.3443 240.72 81.6201 241.291 81.6713C241.424 81.6896 241.56 81.6896 241.694 81.6713C242.402 81.6816 243.095 81.4697 243.677 81.0656C244.259 80.6614 244.699 80.0852 244.936 79.4179C245.025 79.1207 245.068 78.8119 245.065 78.5019V76.2485Z" fill="#224CFF"/>
<path d="M253.499 73.2806C253.499 71.1188 253.499 69.3784 253.371 67.7846H257.035L257.237 70.3127C257.843 69.3839 258.68 68.6287 259.666 68.1212C260.652 67.6137 261.753 67.3714 262.861 67.4182C266.653 67.4182 269.786 70.6425 269.786 75.7722C269.786 81.7079 266.122 84.5658 262.293 84.5658C261.414 84.6128 260.537 84.4437 259.739 84.0732C258.94 83.7027 258.245 83.1422 257.713 82.4407V82.4407V90.9229H253.573L253.499 73.2806ZM257.64 77.366C257.633 77.7497 257.682 78.1324 257.786 78.5019C257.961 79.3385 258.423 80.0877 259.092 80.6197C259.762 81.1516 260.596 81.4329 261.45 81.4148C264.07 81.4148 265.627 79.2163 265.627 75.9187C265.627 73.0241 264.198 70.6608 261.542 70.6608C260.672 70.6814 259.836 70.9974 259.17 71.5568C258.504 72.1163 258.048 72.8857 257.878 73.7386C257.762 74.0749 257.701 74.4273 257.695 74.7829L257.64 77.366Z" fill="#224CFF"/>
<path d="M277.295 67.7847V80.9935H282.132V67.7847H286.254V80.9935H291.036V67.7847H295.121V84.2728H273.137V67.7847H277.295Z" fill="#224CFF"/>
<path d="M303.382 67.7847V73.6838C303.382 76.2852 303.382 78.0256 303.144 80.334H303.254C304.134 78.502 304.628 77.1829 305.471 75.4791L309.611 67.7847H314.631V84.2728H310.692V78.4104C310.692 75.7723 310.802 74.5631 310.967 71.467H310.82C310.014 73.4273 309.483 74.5998 308.677 76.1753C307.395 78.6119 305.911 81.6714 304.482 84.2728H299.535V67.7847H303.382Z" fill="#224CFF"/>
<path d="M321.885 77.1829C321.995 80.1324 324.322 81.4149 326.942 81.4149C328.531 81.4541 330.112 81.1802 331.595 80.6088L332.199 83.4667C330.374 84.1805 328.425 84.529 326.465 84.4926C325.45 84.5884 324.425 84.4828 323.45 84.1817C322.476 83.8806 321.57 83.39 320.785 82.7381C320.001 82.0862 319.353 81.2858 318.878 80.3828C318.403 79.4798 318.112 78.492 318.02 77.476C317.983 77.0493 317.983 76.6203 318.02 76.1936C318.02 71.6319 320.786 67.3633 326.044 67.3633C331.302 67.3633 333.134 71.7418 333.134 75.3509C333.149 75.965 333.1 76.5791 332.987 77.1829H321.885ZM329.103 74.27C329.229 73.3449 328.983 72.4078 328.42 71.663C327.858 70.9183 327.023 70.4263 326.099 70.2945H325.714C324.69 70.3592 323.728 70.8086 323.021 71.5527C322.315 72.2967 321.915 73.2805 321.904 74.3066L329.103 74.27Z" fill="#224CFF"/>
<path d="M357.52 61.501V64.9085H347.609V69.8C348.539 69.6843 349.475 69.6231 350.412 69.6168C352.584 69.5643 354.722 70.1641 356.549 71.3389C357.44 71.9435 358.162 72.7657 358.646 73.7276C359.131 74.6895 359.361 75.7591 359.316 76.835C359.34 77.7698 359.168 78.6993 358.811 79.5638C358.455 80.4282 357.922 81.2086 357.246 81.8547C354.758 83.738 351.675 84.6616 348.562 84.4562C346.859 84.4717 345.157 84.3676 343.469 84.1447V61.501H357.52ZM347.609 81.1585C348.338 81.256 349.073 81.2989 349.808 81.2868C351.263 81.3351 352.683 80.8312 353.783 79.8761C354.172 79.4886 354.477 79.025 354.679 78.5144C354.88 78.0037 354.975 77.457 354.956 76.9082C354.975 76.3117 354.848 75.7194 354.586 75.183C354.324 74.6466 353.935 74.1823 353.453 73.8305C352.337 73.075 351.008 72.6962 349.661 72.7496C348.975 72.7619 348.29 72.8108 347.609 72.8961V81.1585Z" fill="#224CFF"/>
<path d="M362.738 73.2806C362.738 71.1188 362.738 69.3784 362.609 67.7846H366.273L366.475 70.3127C367.081 69.3839 367.918 68.6287 368.904 68.1212C369.89 67.6137 370.991 67.3714 372.099 67.4182C375.892 67.4182 379.024 70.6425 379.024 75.7722C379.024 81.7079 375.269 84.5658 371.531 84.5658C370.665 84.6007 369.802 84.4257 369.017 84.0557C368.233 83.6857 367.549 83.1317 367.025 82.4407V82.4407V90.9229H362.738V73.2806ZM366.878 77.366C366.871 77.7497 366.921 78.1324 367.025 78.5019C367.2 79.3385 367.662 80.0877 368.331 80.6197C369 81.1516 369.834 81.4329 370.689 81.4148C373.327 81.4148 374.884 79.2163 374.884 75.9187C374.884 73.0241 373.455 70.6608 370.798 70.6608C369.929 70.6814 369.092 70.9974 368.426 71.5568C367.761 72.1163 367.305 72.8857 367.134 73.7386C367.019 74.0749 366.957 74.4273 366.951 74.7829L366.878 77.366Z" fill="#224CFF"/>
<path d="M391.779 84.2728L391.505 82.4408H391.395C390.803 83.1403 390.06 83.6965 389.222 84.0678C388.385 84.439 387.474 84.6156 386.558 84.5843C385.92 84.6239 385.281 84.5373 384.677 84.3293C384.072 84.1214 383.515 83.7961 383.037 83.3723C382.559 82.9485 382.169 82.4345 381.89 81.8596C381.61 81.2848 381.448 80.6605 381.41 80.0225V79.7111C381.41 75.5524 385.074 73.4639 391.156 73.5006V73.2807C391.156 72.1998 390.717 70.4228 387.804 70.4228C386.251 70.4245 384.726 70.842 383.389 71.6319L382.583 68.9388C384.396 67.9345 386.446 67.4347 388.518 67.4915C393.776 67.4915 395.297 70.8258 395.297 74.3982V80.334C395.275 81.6511 395.355 82.9679 395.535 84.2728H391.779ZM391.23 76.2486C388.299 76.2486 385.496 76.8165 385.496 79.3264C385.445 79.8972 385.623 80.465 385.99 80.9047C386.358 81.3444 386.885 81.6202 387.456 81.6714C387.59 81.6897 387.725 81.6897 387.859 81.6714C388.568 81.6873 389.264 81.4776 389.847 81.0727C390.43 80.6678 390.869 80.0884 391.102 79.418C391.19 79.1208 391.233 78.812 391.23 78.502V76.2486Z" fill="#224CFF"/>
<path d="M411.452 67.7847V70.9907H406.542V84.2728H402.383V71.009H397.547V67.7847H411.452Z" fill="#224CFF"/>
<path d="M417.953 67.7847V72.9693C418.825 72.8294 419.708 72.762 420.591 72.7678C424.365 72.7678 428.34 74.0502 428.34 78.4104C428.374 79.2083 428.207 80.0019 427.855 80.7187C427.503 81.4355 426.977 82.0528 426.325 82.5141C424.058 83.8702 421.433 84.5088 418.796 84.3461C416.964 84.3461 415.296 84.3461 413.812 84.1079V67.7847H417.953ZM417.953 81.3966C418.559 81.4909 419.171 81.5398 419.785 81.5431C421.708 81.5431 424.145 80.9019 424.145 78.5752C424.145 76.2486 421.58 75.644 419.73 75.644C419.116 75.6435 418.502 75.6987 417.898 75.8089L417.953 81.3966Z" fill="#224CFF"/>
<path d="M444.866 84.2727H440.744V77.714H439.187C438.712 77.698 438.24 77.7865 437.803 77.9732C437.366 78.16 436.976 78.4405 436.659 78.7949C435.702 79.9893 435.014 81.3768 434.644 82.862C434.456 83.3258 434.242 83.7785 434.003 84.2177H429.551C429.968 83.6552 430.307 83.039 430.558 82.3857C431.074 80.6668 431.913 79.0625 433.032 77.6591C433.562 77.1129 434.235 76.7258 434.974 76.5415V76.5415C433.885 76.5214 432.843 76.0948 432.053 75.3456C431.264 74.5964 430.783 73.5787 430.705 72.4928C430.703 71.679 430.942 70.8829 431.392 70.2047C431.842 69.5266 432.483 68.9969 433.233 68.6822C435.064 67.9174 437.04 67.5611 439.022 67.6379C440.976 67.6316 442.929 67.754 444.866 68.0043V84.2727ZM440.744 70.4226C440.068 70.2943 439.38 70.239 438.693 70.2577C436.861 70.2577 435.029 70.8989 435.029 72.7126C435.029 74.5263 437.08 75.1675 438.693 75.1675H440.744V70.4226Z" fill="#224CFF"/>
<path d="M472.658 83.5397C470.798 84.2904 468.8 84.64 466.796 84.5657C459.578 84.5657 455.199 80.0406 455.199 73.1339C455.199 65.6409 460.384 61.1342 467.346 61.1342C469.229 61.062 471.106 61.406 472.842 62.1418L471.944 65.4394C470.537 64.8398 469.021 64.5403 467.492 64.56C462.875 64.56 459.523 67.4729 459.523 72.9324C459.523 77.9154 462.472 81.1215 467.455 81.1215C469.004 81.1366 470.541 80.8504 471.981 80.2787L472.658 83.5397Z" fill="#224CFF"/>
<path d="M487.317 67.7847V70.9907H482.389V84.2728H478.248V71.009H473.32V67.7847H487.317Z" fill="#224CFF"/>
<path d="M498.728 84.273L498.453 82.4409H498.306C497.713 83.1464 496.969 83.7089 496.128 84.0864C495.288 84.4639 494.372 84.6467 493.451 84.621C492.816 84.6633 492.178 84.5796 491.575 84.3749C490.972 84.1701 490.416 83.8483 489.937 83.4278C489.459 83.0074 489.068 82.4966 488.788 81.9248C488.508 81.3531 488.343 80.7316 488.303 80.096C488.295 79.9801 488.295 79.8637 488.303 79.7479C488.303 75.5892 491.967 73.5007 498.05 73.5373V73.2809C498.05 72.2 497.61 70.4229 494.715 70.4229C493.162 70.4247 491.638 70.8422 490.3 71.632L489.476 68.939C491.293 67.9429 493.34 67.4437 495.412 67.4917C500.669 67.4917 502.19 70.826 502.19 74.3984V80.3341C502.168 81.6512 502.248 82.9681 502.428 84.273H498.728ZM498.178 76.2487C495.247 76.2487 492.462 76.8167 492.462 79.3265C492.411 79.8974 492.589 80.4651 492.957 80.9048C493.324 81.3446 493.851 81.6203 494.422 81.6715C494.55 81.6898 494.679 81.6898 494.807 81.6715C495.516 81.6874 496.213 81.4778 496.795 81.0729C497.378 80.6679 497.817 80.0885 498.05 79.4181C498.147 79.123 498.191 78.8127 498.178 78.5021V76.2487Z" fill="#224CFF"/>
<path d="M506.609 73.2806C506.609 71.1188 506.609 69.3784 506.48 67.7845H510.145L510.346 70.3127C510.958 69.385 511.798 68.631 512.787 68.1239C513.776 67.6167 514.878 67.3736 515.989 67.4181C519.763 67.4181 522.895 70.6425 522.895 75.7721C522.895 81.7079 519.231 84.5658 515.402 84.5658C514.523 84.6128 513.646 84.4436 512.848 84.0732C512.05 83.7027 511.354 83.1422 510.822 82.4407V82.4407V90.9229H506.664L506.609 73.2806ZM510.767 77.366C510.755 77.7488 510.798 78.1315 510.896 78.5018C511.071 79.3385 511.533 80.0877 512.202 80.6197C512.871 81.1516 513.705 81.4329 514.56 81.4148C517.179 81.4148 518.737 79.2163 518.737 75.9187C518.737 73.0241 517.326 70.6608 514.651 70.6608C513.782 70.6814 512.945 70.9974 512.279 71.5568C511.613 72.1162 511.158 72.8857 510.987 73.7386C510.878 74.0758 510.822 74.4283 510.822 74.7829L510.767 77.366Z" fill="#224CFF"/>
<path d="M530.406 67.7847V80.9935H535.206V67.7847H539.31V80.9935H544.11V67.7847H548.195V84.2728H526.211V67.7847H530.406Z" fill="#224CFF"/>
<path d="M556.494 67.7847V73.6838C556.494 76.2852 556.402 78.0256 556.274 80.334H556.365C557.245 78.502 557.758 77.1829 558.6 75.4791L562.631 67.7847H567.669V84.2728H563.712V78.4104C563.712 75.7723 563.822 74.5631 563.987 71.467H563.858C563.034 73.4273 562.503 74.5998 561.696 76.1753C560.414 78.6119 558.93 81.6714 557.519 84.2728H552.555V67.7847H556.494Z" fill="#224CFF"/>
<path d="M574.992 77.183C575.102 80.1325 577.429 81.4149 580.067 81.4149C581.614 81.4567 583.155 81.2081 584.61 80.6821L585.215 83.5401C583.389 84.2538 581.441 84.6024 579.481 84.566C578.463 84.6592 577.437 84.5505 576.461 84.2461C575.485 83.9418 574.579 83.4479 573.794 82.7926C573.009 82.1374 572.362 81.3337 571.888 80.4276C571.415 79.5216 571.125 78.531 571.035 77.5127C570.999 77.0983 570.999 76.6814 571.035 76.267C571.035 71.7052 573.802 67.4366 579.059 67.4366C584.317 67.4366 586.149 71.8152 586.149 75.4242C586.165 76.0384 586.116 76.6524 586.003 77.2563L574.992 77.183ZM582.211 74.2701C582.336 73.3422 582.088 72.4026 581.521 71.6574C580.954 70.9121 580.115 70.422 579.188 70.2946H578.803C577.78 70.3634 576.821 70.8141 576.115 71.5573C575.409 72.3005 575.008 73.2819 574.992 74.3067L582.211 74.2701Z" fill="#224CFF"/>
<path d="M612.903 83.5402C611.043 84.2893 609.045 84.6388 607.041 84.5661C599.823 84.5661 595.426 80.041 595.426 73.1343C595.426 65.6414 600.629 61.1346 607.572 61.1346C609.455 61.0724 611.33 61.4161 613.068 62.1422L612.152 65.4398C610.745 64.8403 609.229 64.5408 607.7 64.5605C603.084 64.5605 599.749 67.4734 599.749 72.9328C599.749 77.9159 602.681 81.1219 607.664 81.1219C609.212 81.137 610.749 80.8508 612.189 80.2792L612.903 83.5402Z" fill="#224CFF"/>
<path d="M618.528 77.183C618.619 80.1325 620.946 81.4149 623.584 81.4149C625.132 81.4656 626.674 81.2168 628.127 80.6821L628.75 83.5401C626.924 84.2538 624.976 84.6024 623.016 84.566C622 84.6618 620.976 84.5561 620.001 84.255C619.027 83.954 618.121 83.4634 617.336 82.8115C616.552 82.1596 615.903 81.3592 615.429 80.4562C614.954 79.5532 614.662 78.5654 614.57 77.5494C614.534 77.1227 614.534 76.6937 614.57 76.267C614.57 71.7052 617.337 67.4366 622.595 67.4366C627.853 67.4366 629.666 71.8152 629.666 75.4242C629.678 76.0375 629.635 76.6506 629.538 77.2563L618.528 77.183ZM625.746 74.2701C625.871 73.3422 625.623 72.4026 625.056 71.6574C624.49 70.9121 623.65 70.422 622.723 70.2946H622.338C621.314 70.3592 620.352 70.8087 619.645 71.5527C618.939 72.2968 618.539 73.2806 618.528 74.3067L625.746 74.2701Z" fill="#224CFF"/>
<path d="M645.057 83.7231C643.578 84.3123 641.995 84.5988 640.403 84.5658C639.366 84.6407 638.325 84.5105 637.338 84.1827C636.352 83.8549 635.439 83.3359 634.653 82.6554C633.867 81.9749 633.223 81.1461 632.757 80.2166C632.292 79.287 632.014 78.2748 631.94 77.2378C631.921 76.8777 631.921 76.5169 631.94 76.1569C631.86 73.91 632.677 71.7235 634.209 70.078C635.741 68.4326 637.863 67.4627 640.11 67.3815C640.44 67.3632 640.77 67.3632 641.1 67.3815C642.475 67.3689 643.839 67.6305 645.112 68.151L644.361 71.2471C643.376 70.8053 642.307 70.5864 641.228 70.6059C639.932 70.5713 638.675 71.0508 637.731 71.9398C636.787 72.8287 636.233 74.0549 636.19 75.3508C636.19 75.5523 636.19 75.7355 636.19 75.937C636.078 77.2246 636.482 78.5039 637.314 79.4933C638.145 80.4828 639.336 81.1015 640.623 81.2133H641.21C642.339 81.2434 643.462 81.0375 644.507 80.6087L645.057 83.7231Z" fill="#224CFF"/>
<path d="M660.794 67.7847V70.9907H655.865V84.2728H651.707V71.009H646.797V67.7847H660.794Z" fill="#224CFF"/>
<path d="M663.193 73.2806C663.193 71.1188 663.193 69.3784 663.047 67.7846H666.711L666.912 70.3127C667.518 69.3839 668.355 68.6287 669.342 68.1212C670.328 67.6137 671.429 67.3714 672.537 67.4182C676.311 67.4182 679.462 70.6425 679.462 75.7722C679.462 81.7079 675.798 84.5658 671.969 84.5658C671.093 84.6098 670.219 84.4391 669.424 84.0688C668.629 83.6984 667.937 83.1395 667.407 82.4407V82.4407V90.9229H663.193V73.2806ZM667.334 77.366C667.327 77.7497 667.376 78.1324 667.48 78.5019C667.655 79.3385 668.117 80.0877 668.787 80.6197C669.456 81.1516 670.29 81.4329 671.144 81.4148C673.782 81.4148 675.34 79.2163 675.34 75.9187C675.34 73.0241 673.911 70.6608 671.254 70.6608C670.388 70.6911 669.556 71.0106 668.892 71.5684C668.228 72.1262 667.77 72.8902 667.59 73.7386C667.482 74.0761 667.426 74.4284 667.425 74.7829L667.334 77.366Z" fill="#224CFF"/>
<path d="M687.01 67.7847V72.9693C687.877 72.8377 688.753 72.7704 689.63 72.7678C693.294 72.7678 696.958 74.2883 696.958 78.4104C696.982 79.1966 696.811 79.9765 696.459 80.6801C696.107 81.3836 695.586 81.9887 694.943 82.4408C692.849 83.7779 690.387 84.4191 687.908 84.2728C686.076 84.2728 684.39 84.2728 682.906 84.0347V67.7847H687.01ZM687.01 81.4332C687.618 81.5063 688.23 81.543 688.842 81.5431C690.802 81.5431 692.854 80.7553 692.854 78.5386C692.854 76.3219 690.876 75.644 689.025 75.644C688.368 75.6435 687.713 75.6987 687.065 75.8089L687.01 81.4332ZM703.003 67.7847V84.2728H698.863V67.7847H703.003Z" fill="#224CFF"/>
</svg>
